# Blender 3.3.1
# www.blender.org
mtllib Tree.Leaves.mtl
o Cylinder.001
v -0.000000 2.000000 -3.000000 1.0000 1.0000 1.0000
v 0.000000 3.000000 -2.240000 0.3372 0.3765 0.4980
v 2.121320 2.000000 -2.121320 1.0000 1.0000 1.0000
v 1.583919 3.000000 -1.583919 0.3608 0.4000 0.5137
v 3.000000 2.000000 0.000000 1.0000 1.0000 1.0000
v 2.240000 3.000000 -0.000000 0.3647 0.4000 0.5137
v 2.121320 2.000000 2.121320 1.0000 1.0000 1.0000
v 1.583919 3.000000 1.583919 0.5137 0.5373 0.6157
v -0.000000 2.000000 3.000000 1.0000 1.0000 1.0000
v 0.000000 3.000000 2.240000 0.4706 0.4980 0.5843
v -2.121320 2.000000 2.121320 1.0000 1.0000 1.0000
v -1.583919 3.000000 1.583919 0.4235 0.4550 0.5530
v -3.000000 2.000000 0.000000 1.0000 1.0000 1.0000
v -2.240000 3.000000 -0.000000 0.3294 0.3725 0.4941
v -2.121320 2.000000 -2.121320 1.0000 1.0000 1.0000
v -1.583919 3.000000 -1.583919 0.3451 0.3843 0.5059
v -0.000000 3.000000 -2.430000 1.0000 1.0000 1.0000
v 0.000000 4.000000 -1.814400 0.4275 0.4589 0.5569
v 1.718269 3.000000 -1.718270 1.0000 1.0000 1.0000
v 1.282974 4.000000 -1.282975 0.3255 0.3686 0.4941
v 2.430000 3.000000 0.000000 1.0000 1.0000 1.0000
v 1.814400 4.000000 -0.000000 0.3255 0.3686 0.4941
v 1.718269 3.000000 1.718270 1.0000 1.0000 1.0000
v 1.282974 4.000000 1.282975 0.3255 0.3686 0.4941
v -0.000000 3.000000 2.430000 1.0000 1.0000 1.0000
v 0.000000 4.000000 1.814400 0.4589 0.4863 0.5764
v -1.718269 3.000000 1.718270 1.0000 1.0000 1.0000
v -1.282974 4.000000 1.282975 0.3255 0.3686 0.4941
v -2.430000 3.000000 0.000000 1.0000 1.0000 1.0000
v -1.814400 4.000000 -0.000000 0.5019 0.5255 0.6079
v -1.718269 3.000000 -1.718270 1.0000 1.0000 1.0000
v -1.282974 4.000000 -1.282975 0.3255 0.3686 0.4941
v -0.000000 4.000000 -1.944000 1.0000 1.0000 1.0000
v 0.000000 5.000000 -1.451520 0.3294 0.3725 0.4980
v 1.374616 4.000000 -1.374616 1.0000 1.0000 1.0000
v 1.026380 5.000000 -1.026380 0.4275 0.4589 0.5569
v 1.944000 4.000000 0.000000 1.0000 1.0000 1.0000
v 1.451520 5.000000 -0.000000 0.4235 0.4589 0.5569
v 1.374616 4.000000 1.374616 1.0000 1.0000 1.0000
v 1.026380 5.000000 1.026380 0.4039 0.4353 0.5412
v -0.000000 4.000000 1.944000 1.0000 1.0000 1.0000
v 0.000000 5.000000 1.451520 0.3255 0.3686 0.4941
v -1.374616 4.000000 1.374616 1.0000 1.0000 1.0000
v -1.026380 5.000000 1.026380 0.5098 0.5333 0.6079
v -1.944000 4.000000 0.000000 1.0000 1.0000 1.0000
v -1.451520 5.000000 -0.000000 0.4589 0.4863 0.5764
v -1.374616 4.000000 -1.374616 1.0000 1.0000 1.0000
v -1.026380 5.000000 -1.026380 0.3333 0.3725 0.4980
v -0.000000 5.000000 -1.530900 1.0000 1.0000 1.0000
v 0.000000 6.000000 -1.143072 0.3294 0.3725 0.4980
v 1.082510 5.000000 -1.082510 0.9607 0.9607 0.9686
v 0.808274 6.000000 -0.808274 0.3882 0.4235 0.5333
v 1.530900 5.000000 0.000000 0.9804 0.9804 0.9843
v 1.143072 6.000000 -0.000000 0.4432 0.4706 0.5647
v 1.082510 5.000000 1.082510 0.9960 0.9960 0.9960
v 0.808274 6.000000 0.808274 0.4235 0.4550 0.5530
v -0.000000 5.000000 1.530900 1.0000 1.0000 1.0000
v 0.000000 6.000000 1.143072 0.5294 0.5530 0.6276
v -1.082510 5.000000 1.082510 1.0000 1.0000 1.0000
v -0.808274 6.000000 0.808274 0.5176 0.5451 0.6197
v -1.530900 5.000000 0.000000 1.0000 1.0000 1.0000
v -1.143072 6.000000 -0.000000 0.4471 0.4784 0.5686
v -1.082510 5.000000 -1.082510 1.0000 1.0000 1.0000
v -0.808274 6.000000 -0.808274 0.3608 0.4000 0.5137
v -0.000000 6.000000 -1.240029 1.0000 1.0000 1.0000
v -0.000000 9.000000 -0.000000 1.0000 1.0000 1.0000
v 0.876833 6.000000 -0.876833 1.0000 1.0000 1.0000
v 0.000000 9.000000 -0.000000 1.0000 1.0000 1.0000
v 1.240029 6.000000 -0.000000 1.0000 1.0000 1.0000
v 0.000000 9.000000 -0.000000 1.0000 1.0000 1.0000
v 0.876833 6.000000 0.876833 1.0000 1.0000 1.0000
v 0.000000 9.000000 -0.000000 1.0000 1.0000 1.0000
v -0.000000 6.000000 1.240029 1.0000 1.0000 1.0000
v -0.000000 9.000000 -0.000000 1.0000 1.0000 1.0000
v -0.876833 6.000000 0.876833 1.0000 1.0000 1.0000
v 0.000000 9.000000 -0.000000 1.0000 1.0000 1.0000
v -1.240029 6.000000 -0.000000 1.0000 1.0000 1.0000
v 0.000000 9.000000 -0.000000 1.0000 1.0000 1.0000
v -0.876833 6.000000 -0.876833 1.0000 1.0000 1.0000
v 0.000000 9.000000 -0.000000 1.0000 1.0000 1.0000
vn 0.3132 0.5746 -0.7561
vn 0.7561 0.5746 -0.3132
vn 0.7561 0.5746 0.3132
vn 0.3132 0.5746 0.7561
vn -0.3132 0.5746 0.7561
vn -0.7561 0.5746 0.3132
vn -0.7561 0.5746 -0.3132
vn -0.3132 0.5746 -0.7561
vn 0.3326 0.4944 -0.8031
vn 0.8031 0.4944 -0.3326
vn 0.8031 0.4944 0.3326
vn 0.3326 0.4944 0.8031
vn -0.3326 0.4944 0.8031
vn -0.8031 0.4944 0.3326
vn -0.8031 0.4944 -0.3326
vn -0.3326 0.4944 -0.8031
vn 0.3483 0.4141 -0.8409
vn 0.8409 0.4141 -0.3483
vn 0.8409 0.4141 0.3483
vn 0.3483 0.4141 0.8409
vn -0.3483 0.4141 0.8409
vn -0.8409 0.4141 0.3483
vn -0.8409 0.4141 -0.3483
vn -0.3483 0.4141 -0.8409
vn 0.3603 0.3373 -0.8697
vn 0.8697 0.3373 -0.3603
vn 0.8697 0.3373 0.3603
vn 0.3603 0.3373 0.8697
vn -0.3603 0.3373 0.8697
vn -0.8697 0.3373 0.3603
vn -0.8697 0.3373 -0.3603
vn -0.3603 0.3373 -0.8697
vn 0.3575 0.3568 -0.8631
vn 0.8631 0.3568 -0.3575
vn 0.8631 0.3568 0.3575
vn 0.3575 0.3568 0.8631
vn -0.3575 0.3568 0.8631
vn -0.8631 0.3568 0.3575
vn -0.0000 1.0000 -0.0000
vn -0.8631 0.3568 -0.3575
vn -0.3575 0.3568 -0.8631
vn -0.0000 0.3820 0.9242
vn -0.0000 -0.3820 -0.9242
vt 0.500000 -4.192857
vt 0.500000 -2.764285
vt 3.530457 -4.192857
vt 2.762741 -2.764285
vt 0.500000 -4.192857
vt 0.500000 -2.764285
vt 3.530457 -4.192857
vt -2.530457 -4.192857
vt -1.762741 -2.764285
vt 2.762741 -2.764285
vt 0.500000 -4.192857
vt 0.500000 -2.764285
vt -2.530457 -4.192857
vt -1.762741 -2.764285
vt 0.500000 -4.192857
vt 0.500000 -2.764285
vt -2.530457 -4.192857
vt 3.530457 -4.192857
vt 2.762741 -2.764285
vt -1.762741 -2.764285
vt 0.500000 -2.764285
vt 0.500000 -1.335714
vt 2.954671 -2.764285
vt 2.332821 -1.335714
vt 0.500000 -2.764285
vt 0.500000 -1.335714
vt 2.954671 -2.764285
vt -1.954671 -2.764285
vt -1.332821 -1.335714
vt 2.332821 -1.335714
vt 0.500000 -2.764285
vt 0.500000 -1.335714
vt -1.954671 -2.764285
vt -1.332821 -1.335714
vt 0.500000 -2.764285
vt 0.500000 -1.335714
vt -1.954671 -2.764285
vt 2.954671 -2.764285
vt 2.332821 -1.335714
vt -1.332821 -1.335714
vt 0.500000 -1.335714
vt 0.500000 0.092858
vt 2.463737 -1.335714
vt 1.966256 0.092858
vt 0.500000 -1.335714
vt 0.500000 0.092858
vt -1.463737 -1.335714
vt 2.463737 -1.335714
vt -0.966256 0.092858
vt 1.966256 0.092858
vt 0.500000 -1.335714
vt 0.500000 0.092858
vt -1.463737 -1.335714
vt -0.966256 0.092858
vt 0.500000 -1.335714
vt 0.500000 0.092858
vt 2.463737 -1.335714
vt -1.463737 -1.335714
vt 1.966256 0.092858
vt -0.966256 0.092858
vt 0.500000 0.092858
vt 0.500000 1.521429
vt 2.046443 0.092858
vt 1.654677 1.521429
vt 0.500000 0.092858
vt 0.500000 1.521429
vt -1.046443 0.092858
vt 2.046443 0.092858
vt -0.654677 1.521429
vt 1.654677 1.521429
vt 0.500000 0.092858
vt 0.500000 1.521429
vt -1.046443 0.092858
vt -0.654677 1.521429
vt 0.500000 0.092858
vt 0.500000 1.521429
vt 2.046443 0.092858
vt -1.046443 0.092858
vt 1.654677 1.521429
vt -0.654677 1.521429
vt 0.500000 1.521429
vt 0.500000 -0.335714
vt 0.500000 5.807143
vt 1.752618 1.521429
vt 0.500000 5.807143
vt 0.500000 -0.335714
vt 0.500000 1.521429
vt 0.500000 5.807143
vt 0.500000 -0.335714
vt -0.752618 1.521429
vt 1.752618 1.521429
vt 0.500000 5.807143
vt 0.500000 -0.335714
vt 0.500000 1.521429
vt 0.500000 5.807143
vt 0.500000 -0.335714
vt -0.752618 1.521429
vt 0.500000 5.807143
vt 0.500000 -0.335714
vt 0.500000 1.521429
vt 0.500000 -0.335714
vt 0.500000 5.807143
vt 1.752618 1.521429
vt -0.752618 1.521429
vt 0.500000 -0.335714
vt 0.500000 5.807143
s 0
f 2/2/1 3/3/1 1/1/1
f 4/4/2 5/5/2 3/3/2
f 6/6/3 7/8/3 5/5/3
f 8/10/4 9/11/4 7/7/4
f 10/12/5 11/13/5 9/11/5
f 12/14/6 13/15/6 11/13/6
f 14/16/7 15/18/7 13/15/7
f 16/20/8 1/1/8 15/17/8
f 18/22/9 19/23/9 17/21/9
f 20/24/10 21/25/10 19/23/10
f 22/26/11 23/28/11 21/25/11
f 24/30/12 25/31/12 23/27/12
f 26/32/13 27/33/13 25/31/13
f 28/34/14 29/35/14 27/33/14
f 30/36/15 31/38/15 29/35/15
f 32/40/16 17/21/16 31/37/16
f 34/42/17 35/43/17 33/41/17
f 35/43/18 38/46/18 37/45/18
f 38/46/19 39/47/19 37/45/19
f 39/48/20 42/52/20 41/51/20
f 42/52/21 43/53/21 41/51/21
f 43/53/22 46/56/22 45/55/22
f 46/56/23 47/57/23 45/55/23
f 47/58/24 34/42/24 33/41/24
f 50/62/25 51/63/25 49/61/25
f 51/63/26 54/66/26 53/65/26
f 54/66/27 55/67/27 53/65/27
f 55/68/28 58/72/28 57/71/28
f 58/72/29 59/73/29 57/71/29
f 59/73/30 62/76/30 61/75/30
f 62/76/31 63/77/31 61/75/31
f 63/78/32 50/62/32 49/61/32
f 66/83/33 67/84/33 65/81/33
f 67/84/34 70/88/34 69/87/34
f 69/87/35 72/92/35 71/90/35
f 72/92/36 73/94/36 71/91/36
f 73/94/37 76/98/37 75/97/37
f 75/97/38 78/102/38 77/100/38
f 66/82/39 80/105/39 74/96/39
f 77/100/40 80/106/40 79/103/40
f 79/104/41 66/83/41 65/81/41
f 2/2/1 4/4/1 3/3/1
f 4/4/2 6/6/2 5/5/2
f 6/6/3 8/9/3 7/8/3
f 8/10/4 10/12/4 9/11/4
f 10/12/5 12/14/5 11/13/5
f 12/14/6 14/16/6 13/15/6
f 14/16/7 16/19/7 15/18/7
f 16/20/8 2/2/8 1/1/8
f 18/22/9 20/24/9 19/23/9
f 20/24/10 22/26/10 21/25/10
f 22/26/11 24/29/11 23/28/11
f 24/30/12 26/32/12 25/31/12
f 26/32/13 28/34/13 27/33/13
f 28/34/14 30/36/14 29/35/14
f 30/36/15 32/39/15 31/38/15
f 32/40/16 18/22/16 17/21/16
f 34/42/17 36/44/17 35/43/17
f 35/43/18 36/44/18 38/46/18
f 38/46/19 40/49/19 39/47/19
f 39/48/20 40/50/20 42/52/20
f 42/52/21 44/54/21 43/53/21
f 43/53/22 44/54/22 46/56/22
f 46/56/23 48/59/23 47/57/23
f 47/58/24 48/60/24 34/42/24
f 50/62/25 52/64/25 51/63/25
f 51/63/26 52/64/26 54/66/26
f 54/66/27 56/69/27 55/67/27
f 55/68/28 56/70/28 58/72/28
f 58/72/29 60/74/29 59/73/29
f 59/73/30 60/74/30 62/76/30
f 62/76/31 64/79/31 63/77/31
f 63/78/32 64/80/32 50/62/32
f 66/83/39 68/85/39 67/84/39
f 67/84/39 68/85/39 70/88/39
f 69/87/39 70/88/39 72/92/39
f 72/92/42 74/95/42 73/94/42
f 73/94/43 74/95/43 76/98/43
f 75/97/39 76/98/39 78/102/39
f 70/89/39 68/86/39 66/82/39
f 80/105/39 78/101/39 76/99/39
f 72/93/39 70/89/39 66/82/39
f 80/105/39 76/99/39 74/96/39
f 74/96/39 72/93/39 66/82/39
f 77/100/39 78/102/39 80/106/39
f 79/104/39 80/106/39 66/83/39
